name Run_300 01_newCOP3_v24.mot
datacolumns 19
datarows 67
range 0.033333 0.102083
DataType=double
version=3
OpenSimVersion=4.3-2021-08-27-4bc7ad9
endheader
time	R_ground_force_vx	R_ground_force_vy	R_ground_force_vz	R_ground_force_px	R_ground_force_py	R_ground_force_pz	L_ground_force_vx	L_ground_force_vy	L_ground_force_vz	L_ground_force_px	L_ground_force_py	L_ground_force_pz	R_ground_torque_x	R_ground_torque_y	R_ground_torque_z	L_ground_torque_x	L_ground_torque_y	L_ground_torque_z
0.033333	0	0	0	0	0	0	94.09472700000001	323.000031	-40.070976	0.47349	0	-0.460259	0	0	0	-0	16.058233	-0
0.034375	0	0	0	0	0	0	93.17791699999999	314.097168	-39.344284	0.473485	0	-0.459124	0	0	0	-0	15.388712	-0
0.035417	0	0	0	0	0	0	92.209343	304.926208	-38.590557	0.47348	0	-0.457911	0	0	0	-0	14.716533	-0
0.036458	0	0	0	0	0	0	91.18512	295.5383	-37.813606	0.473476	0	-0.456627	0	0	0	-0	14.042749	-0
0.0375	0	0	0	0	0	0	90.101089	285.977936	-37.017014	0.473472	0	-0.45528	0	0	0	-0	13.368419	-0
0.038542	0	0	0	0	0	0	88.953644	276.285797	-36.204174	0.473467	0	-0.453875	0	0	0	-0	12.694599	-0
0.039583	0	0	0	0	0	0	87.740196	266.500122	-35.378311	0.473462	0	-0.452421	0	0	0	-0	12.022344	-0
0.040625	0	0	0	0	0	0	86.459496	256.657715	-34.54245	0.473454	0	-0.450923	0	0	0	-0	11.352701	-0
0.041667	0	0	0	0	0	0	85.11174	246.794083	-33.699432	0.473442	0	-0.449388	0	0	0	-0	10.686708	-0
0.042708	0	0	0	0	0	0	83.698578	236.943619	-32.851894	0.473421	0	-0.447822	0	0	0	-0	10.02539	-0
0.04375	0	0	0	0	0	0	82.223007	227.139526	-32.002251	0.473389	0	-0.446228	0	0	0	-0	9.369749000000001	-0
0.044792	0	0	0	0	0	0	80.689125	217.413681	-31.152672	0.473342	0	-0.444611	0	0	0	-0	8.720772	-0
0.045833	0	0	0	0	0	0	79.10187500000001	207.796432	-30.305092	0.473273	0	-0.442974	0	0	0	-0	8.079416999999999	-0
0.046875	0	0	0	0	0	0	77.46669	198.31633	-29.461182	0.473177	0	-0.441318	0	0	0	-0	7.446618	-0
0.047917	0	0	0	0	0	0	75.789162	188.999939	-28.622343	0.473048	0	-0.439644	0	0	0	-0	6.823275	-0
0.048958	0	0	0	0	0	0	74.074684	179.871674	-27.789715	0.472881	0	-0.437951	0	0	0	-0	6.210257	-0
0.05	0	0	0	0	0	0	72.32815600000001	170.953522	-26.964172	0.472669	0	-0.436238	0	0	0	-0	5.608397	-0
0.051042	0	0	0	0	0	0	70.55373400000001	162.264938	-26.146338	0.472406	0	-0.434502	0	0	0	-0	5.018488	-0
0.052083	0	0	0	0	0	0	68.754631	153.8228	-25.33659	0.472089	0	-0.432739	0	0	0	-0	4.441285	-0
0.053125	0	0	0	0	0	0	66.93306	145.641266	-24.535088	0.471714	0	-0.430945	0	0	0	-0	3.8775	-0
0.054167	0	0	0	0	0	0	65.09021799999999	137.731796	-23.741796	0.47128	0	-0.429114	0	0	0	-0	3.327798	-0
0.055208	0	0	0	0	0	0	63.226376	130.103226	-22.956511	0.470788	0	-0.427238	0	0	0	-0	2.792803	-0
0.05625	0	0	0	0	0	0	61.341072	122.761787	-22.178894	0.470242	0	-0.425311	0	0	0	-0	2.273088	-0
0.057292	0	0	0	0	0	0	59.433323	115.711349	-21.408508	0.469651	0	-0.423324	0	0	0	-0	1.76918	-0
0.058333	0	0	0	0	0	0	57.501938	108.953484	-20.644857	0.469024	0	-0.421267	0	0	0	-0	1.281557	-0
0.059375	0	0	0	0	0	0	55.545784	102.487747	-19.887419	0.468379	0	-0.419129	0	0	0	-0	0.810648	-0
0.060417	0	0	0	0	0	0	53.564114	96.311859	-19.135693	0.467735	0	-0.416898	0	0	0	-0	0.35683	-0
0.061458	0	0	0	0	0	0	51.556824	90.42197400000001	-18.389231	0.467118	0	-0.414561	0	0	0	0	-0.079567	0
0.0625	0	0	0	0	0	0	49.524673	84.812943	-17.647671	0.46656	0	-0.412102	0	0	0	0	-0.498267	0
0.063542	0	0	0	0	0	0	47.469463	79.478531	-16.910774	0.466096	0	-0.409505	0	0	0	0	-0.89904	0
0.064583	0	0	0	0	0	0	45.394108	74.41166699999999	-16.178444	0.465768	0	-0.40675	0	0	0	0	-1.281707	0
0.065625	0	0	0	0	0	0	43.302681	69.604691	-15.450752	0.465622	0	-0.403817	0	0	0	0	-1.64614	0
0.066667	0	0	0	0	0	0	41.200348	65.049515	-14.727948	0.465713	0	-0.40068	0	0	0	0	-1.992256	0
0.067708	0	0	0	0	0	0	39.093254	60.737831	-14.010471	0.466096	0	-0.397316	0	0	0	0	-2.320022	0
0.06875000000000001	0	0	0	0	0	0	36.988392	56.661232	-13.298946	0.466837	0	-0.393695	0	0	0	0	-2.62945	0
0.06979200000000001	0	0	0	0	0	0	34.893368	52.811337	-12.594178	0.468003	0	-0.389787	0	0	0	0	-2.920597	0
0.07083299999999999	0	0	0	0	0	0	32.816212	49.179867	-11.897141	0.469668	0	-0.385558	0	0	0	0	-3.193565	0
0.07187499999999999	0	0	0	0	0	0	30.765148	45.758698	-11.208954	0.471911	0	-0.380975	0	0	0	0	-3.448498	0
0.072917	0	0	0	0	0	0	28.748367	42.539906	-10.53086	0.474816	0	-0.376	0	0	0	0	-3.68558	0
0.073958	0	0	0	0	0	0	26.773832	39.515755	-9.864191999999999	0.478472	0	-0.370598	0	0	0	0	-3.905035	0
0.075	0	0	0	0	0	0	24.849098	36.678722	-9.210345	0.482971	0	-0.364729	0	0	0	0	-4.107126	0
0.076042	0	0	0	0	0	0	22.981153	34.021442	-8.570739	0.488405	0	-0.358358	0	0	0	0	-4.292149	0
0.077083	0	0	0	0	0	0	21.17631	31.536715	-7.946782	0.49487	0	-0.351447	0	0	0	0	-4.460435	0
0.078125	0	0	0	0	0	0	19.440113	29.217445	-7.339841	0.502455	0	-0.343962	0	0	0	0	-4.612346	0
0.079167	0	0	0	0	0	0	17.777279	27.056625	-6.751202	0.511243	0	-0.33587	0	0	0	0	-4.748275	0
0.080208	0	0	0	0	0	0	16.191675	25.047289	-6.182045	0.521306	0	-0.327143	0	0	0	0	-4.868642	0
0.08125	0	0	0	0	0	0	14.686302	23.182482	-5.633422	0.532697	0	-0.317756	0	0	0	0	-4.973891	0
0.082292	0	0	0	0	0	0	13.263326	21.455235	-5.106228	0.545445	0	-0.307689	0	0	0	0	-5.064489	0
0.083333	0	0	0	0	0	0	11.924101	19.858553	-4.601192	0.559545	0	-0.296926	0	0	0	0	-5.140927	0
0.08437500000000001	0	0	0	0	0	0	10.669224	18.385399	-4.118867	0.574953	0	-0.285461	0	0	0	0	-5.203711	0
0.08541700000000001	0	0	0	0	0	0	9.498592	17.028719	-3.659625	0.59158	0	-0.27329	0	0	0	0	-5.253364	0
0.08645799999999999	0	0	0	0	0	0	8.411473000000001	15.781452	-3.223657	0.609281	0	-0.260419	0	0	0	0	-5.290423	0
0.08749999999999999	0	0	0	0	0	0	7.406582	14.636583	-2.810986	0.62786	0	-0.246859	0	0	0	0	-5.315436	0
0.088542	0	0	0	0	0	0	6.48216	13.587193	-2.42147	0.64706	0	-0.23263	0	0	0	0	-5.32896	0
0.089583	0	0	0	0	0	0	5.636058	12.626527	-2.054824	0.666574	0	-0.217758	0	0	0	0	-5.33156	0
0.090625	0	0	0	0	0	0	4.865821	11.748066	-1.710633	0.686046	0	-0.202279	0	0	0	0	-5.323804	0
0.091667	0	0	0	0	0	0	4.168766	10.945603	-1.388374	0.705087	0	-0.186236	0	0	0	0	-5.306262	0
0.092708	0	0	0	0	0	0	3.542052	10.213315	-1.087435	0.723288	0	-0.169685	0	0	0	0	-5.279504	0
0.09375	0	0	0	0	0	0	0	0	0	0	0	0	0	0	0	0	0	0
0.094792	0	0	0	0	0	0	0	0	0	0	0	0	0	0	0	0	0	0
0.095833	0	0	0	0	0	0	0	0	0	0	0	0	0	0	0	0	0	0
0.096875	0	0	0	0	0	0	0	0	0	0	0	0	0	0	0	0	0	0
0.097917	0	0	0	0	0	0	0	0	0	0	0	0	0	0	0	0	0	0
0.098958	0	0	0	0	0	0	0	0	0	0	0	0	0	0	0	0	0	0
0.1	0	0	0	0	0	0	0	0	0	0	0	0	0	0	0	0	0	0
0.101042	0	0	0	0	0	0	0	0	0	0	0	0	0	0	0	0	0	0
0.102083	0	0	0	0	0	0	0	0	0	0	0	0	0	0	0	0	0	0
